<mxfile host="app.diagrams.net" modified="2025-05-31T04:00:00.000Z" agent="Mozilla/5.0" version="21.3.7">
  <diagram id="finops-architecture" name="FinOps Agent Architecture">
    <mxGraphModel dx="1422" dy="798" grid="1" gridSize="10" guides="1" tooltips="1" connect="1" arrows="1" fold="1" page="1" pageScale="1" pageWidth="1100" pageHeight="850" background="#ffffff" math="0" shadow="0">
      <root>
        <mxCell id="0" />
        <mxCell id="1" parent="0" />
        
        <!-- AWS Cloud Border -->
        <mxCell id="cloud-border" value="AWS Cloud" style="points=[[0,0],[0.25,0],[0.5,0],[0.75,0],[1,0],[1,0.25],[1,0.5],[1,0.75],[1,1],[0.75,1],[0.5,1],[0.25,1],[0,1],[0,0.75],[0,0.5],[0,0.25]];outlineConnect=0;gradientColor=none;html=1;whiteSpace=wrap;fontSize=12;fontStyle=0;container=1;pointerEvents=0;collapsible=0;recursiveResize=0;shape=mxgraph.aws4.group;grIcon=mxgraph.aws4.group_aws_cloud;strokeColor=#232F3E;fillColor=none;verticalAlign=top;align=left;spacingLeft=30;fontColor=#232F3E;dashed=0;" vertex="1" parent="1">
          <mxGeometry x="50" y="50" width="1000" height="750" as="geometry" />
        </mxCell>
        
        <!-- Frontend Layer -->
        <mxCell id="amplify" value="AWS Amplify" style="outlineConnect=0;fontColor=#232F3E;gradientColor=#F54749;gradientDirection=north;fillColor=#C7131F;strokeColor=#ffffff;dashed=0;verticalLabelPosition=bottom;verticalAlign=top;align=center;html=1;fontSize=12;fontStyle=0;aspect=fixed;shape=mxgraph.aws4.resourceIcon;resIcon=mxgraph.aws4.amplify;" vertex="1" parent="cloud-border">
          <mxGeometry x="100" y="100" width="78" height="78" as="geometry" />
        </mxCell>
        
        <mxCell id="react-frontend" value="React.js Frontend" style="rounded=1;whiteSpace=wrap;html=1;fillColor=#dae8fc;strokeColor=#6c8ebf;" vertex="1" parent="cloud-border">
          <mxGeometry x="79" y="200" width="120" height="60" as="geometry" />
        </mxCell>
        
        <!-- Authentication Layer -->
        <mxCell id="cognito" value="Amazon Cognito" style="outlineConnect=0;fontColor=#232F3E;gradientColor=#F54749;gradientDirection=north;fillColor=#C7131F;strokeColor=#ffffff;dashed=0;verticalLabelPosition=bottom;verticalAlign=top;align=center;html=1;fontSize=12;fontStyle=0;aspect=fixed;shape=mxgraph.aws4.resourceIcon;resIcon=mxgraph.aws4.cognito;" vertex="1" parent="cloud-border">
          <mxGeometry x="300" y="100" width="78" height="78" as="geometry" />
        </mxCell>
        
        <mxCell id="iam" value="IAM" style="outlineConnect=0;fontColor=#232F3E;gradientColor=#F54749;gradientDirection=north;fillColor=#C7131F;strokeColor=#ffffff;dashed=0;verticalLabelPosition=bottom;verticalAlign=top;align=center;html=1;fontSize=12;fontStyle=0;aspect=fixed;shape=mxgraph.aws4.resourceIcon;resIcon=mxgraph.aws4.identity_and_access_management;" vertex="1" parent="cloud-border">
          <mxGeometry x="450" y="100" width="78" height="78" as="geometry" />
        </mxCell>
        
        <!-- Communication Layer -->
        <mxCell id="appsync" value="AWS AppSync" style="outlineConnect=0;fontColor=#232F3E;gradientColor=#FF4F8B;gradientDirection=north;fillColor=#BC1356;strokeColor=#ffffff;dashed=0;verticalLabelPosition=bottom;verticalAlign=top;align=center;html=1;fontSize=12;fontStyle=0;aspect=fixed;shape=mxgraph.aws4.resourceIcon;resIcon=mxgraph.aws4.appsync;" vertex="1" parent="cloud-border">
          <mxGeometry x="300" y="250" width="78" height="78" as="geometry" />
        </mxCell>
        
        <!-- Agent Layer -->
        <mxCell id="supervisor-lambda" value="FinOps Supervisor Agent" style="outlineConnect=0;fontColor=#232F3E;gradientColor=#F78E04;gradientDirection=north;fillColor=#D05C17;strokeColor=#ffffff;dashed=0;verticalLabelPosition=bottom;verticalAlign=top;align=center;html=1;fontSize=12;fontStyle=0;aspect=fixed;shape=mxgraph.aws4.resourceIcon;resIcon=mxgraph.aws4.lambda;" vertex="1" parent="cloud-border">
          <mxGeometry x="200" y="400" width="78" height="78" as="geometry" />
        </mxCell>
        
        <mxCell id="cost-analysis-lambda" value="Cost Analysis Agent" style="outlineConnect=0;fontColor=#232F3E;gradientColor=#F78E04;gradientDirection=north;fillColor=#D05C17;strokeColor=#ffffff;dashed=0;verticalLabelPosition=bottom;verticalAlign=top;align=center;html=1;fontSize=12;fontStyle=0;aspect=fixed;shape=mxgraph.aws4.resourceIcon;resIcon=mxgraph.aws4.lambda;" vertex="1" parent="cloud-border">
          <mxGeometry x="400" y="400" width="78" height="78" as="geometry" />
        </mxCell>
        
        <mxCell id="optimization-lambda" value="Cost Optimization Agent" style="outlineConnect=0;fontColor=#232F3E;gradientColor=#F78E04;gradientDirection=north;fillColor=#D05C17;strokeColor=#ffffff;dashed=0;verticalLabelPosition=bottom;verticalAlign=top;align=center;html=1;fontSize=12;fontStyle=0;aspect=fixed;shape=mxgraph.aws4.resourceIcon;resIcon=mxgraph.aws4.lambda;" vertex="1" parent="cloud-border">
          <mxGeometry x="600" y="400" width="78" height="78" as="geometry" />
        </mxCell>
        
        <!-- MCP Server Layer -->
        <mxCell id="supervisor-mcp" value="MCP Server (Agent Tools)" style="outlineConnect=0;fontColor=#232F3E;gradientColor=#F78E04;gradientDirection=north;fillColor=#D05C17;strokeColor=#ffffff;dashed=0;verticalLabelPosition=bottom;verticalAlign=top;align=center;html=1;fontSize=12;fontStyle=0;aspect=fixed;shape=mxgraph.aws4.resourceIcon;resIcon=mxgraph.aws4.lambda;" vertex="1" parent="cloud-border">
          <mxGeometry x="200" y="550" width="78" height="78" as="geometry" />
        </mxCell>
        
        <mxCell id="cost-analysis-mcp" value="MCP Server (Cost Analysis)" style="outlineConnect=0;fontColor=#232F3E;gradientColor=#F78E04;gradientDirection=north;fillColor=#D05C17;strokeColor=#ffffff;dashed=0;verticalLabelPosition=bottom;verticalAlign=top;align=center;html=1;fontSize=12;fontStyle=0;aspect=fixed;shape=mxgraph.aws4.resourceIcon;resIcon=mxgraph.aws4.lambda;" vertex="1" parent="cloud-border">
          <mxGeometry x="400" y="550" width="78" height="78" as="geometry" />
        </mxCell>
        
        <mxCell id="optimization-mcp" value="MCP Server (Optimization)" style="outlineConnect=0;fontColor=#232F3E;gradientColor=#F78E04;gradientDirection=north;fillColor=#D05C17;strokeColor=#ffffff;dashed=0;verticalLabelPosition=bottom;verticalAlign=top;align=center;html=1;fontSize=12;fontStyle=0;aspect=fixed;shape=mxgraph.aws4.resourceIcon;resIcon=mxgraph.aws4.lambda;" vertex="1" parent="cloud-border">
          <mxGeometry x="600" y="550" width="78" height="78" as="geometry" />
        </mxCell>
        
        <!-- AWS Service Integration -->
        <mxCell id="cost-explorer" value="AWS Cost Explorer" style="outlineConnect=0;fontColor=#232F3E;gradientColor=#60A337;gradientDirection=north;fillColor=#277116;strokeColor=#ffffff;dashed=0;verticalLabelPosition=bottom;verticalAlign=top;align=center;html=1;fontSize=12;fontStyle=0;aspect=fixed;shape=mxgraph.aws4.resourceIcon;resIcon=mxgraph.aws4.cost_explorer;" vertex="1" parent="cloud-border">
          <mxGeometry x="300" y="700" width="78" height="78" as="geometry" />
        </mxCell>
        
        <mxCell id="trusted-advisor" value="AWS Trusted Advisor" style="outlineConnect=0;fontColor=#232F3E;gradientColor=#F34482;gradientDirection=north;fillColor=#BC1356;strokeColor=#ffffff;dashed=0;verticalLabelPosition=bottom;verticalAlign=top;align=center;html=1;fontSize=12;fontStyle=0;aspect=fixed;shape=mxgraph.aws4.resourceIcon;resIcon=mxgraph.aws4.trusted_advisor;" vertex="1" parent="cloud-border">
          <mxGeometry x="500" y="700" width="78" height="78" as="geometry" />
        </mxCell>
        
        <mxCell id="ec2" value="AWS Resources (EC2, etc.)" style="outlineConnect=0;fontColor=#232F3E;gradientColor=#F78E04;gradientDirection=north;fillColor=#D05C17;strokeColor=#ffffff;dashed=0;verticalLabelPosition=bottom;verticalAlign=top;align=center;html=1;fontSize=12;fontStyle=0;aspect=fixed;shape=mxgraph.aws4.resourceIcon;resIcon=mxgraph.aws4.ec2;" vertex="1" parent="cloud-border">
          <mxGeometry x="700" y="700" width="78" height="78" as="geometry" />
        </mxCell>
        
        <!-- Storage and Logging -->
        <mxCell id="dynamodb" value="Amazon DynamoDB" style="outlineConnect=0;fontColor=#232F3E;gradientColor=#4D72F3;gradientDirection=north;fillColor=#3334B9;strokeColor=#ffffff;dashed=0;verticalLabelPosition=bottom;verticalAlign=top;align=center;html=1;fontSize=12;fontStyle=0;aspect=fixed;shape=mxgraph.aws4.resourceIcon;resIcon=mxgraph.aws4.dynamodb;" vertex="1" parent="cloud-border">
          <mxGeometry x="800" y="250" width="78" height="78" as="geometry" />
        </mxCell>
        
        <mxCell id="s3" value="Amazon S3" style="outlineConnect=0;fontColor=#232F3E;gradientColor=#60A337;gradientDirection=north;fillColor=#277116;strokeColor=#ffffff;dashed=0;verticalLabelPosition=bottom;verticalAlign=top;align=center;html=1;fontSize=12;fontStyle=0;aspect=fixed;shape=mxgraph.aws4.resourceIcon;resIcon=mxgraph.aws4.s3;" vertex="1" parent="cloud-border">
          <mxGeometry x="800" y="350" width="78" height="78" as="geometry" />
        </mxCell>
        
        <mxCell id="cloudwatch" value="Amazon CloudWatch" style="outlineConnect=0;fontColor=#232F3E;gradientColor=#F34482;gradientDirection=north;fillColor=#BC1356;strokeColor=#ffffff;dashed=0;verticalLabelPosition=bottom;verticalAlign=top;align=center;html=1;fontSize=12;fontStyle=0;aspect=fixed;shape=mxgraph.aws4.resourceIcon;resIcon=mxgraph.aws4.cloudwatch;" vertex="1" parent="cloud-border">
          <mxGeometry x="800" y="450" width="78" height="78" as="geometry" />
        </mxCell>
        
        <mxCell id="cloudformation" value="AWS CloudFormation" style="outlineConnect=0;fontColor=#232F3E;gradientColor=#F34482;gradientDirection=north;fillColor=#BC1356;strokeColor=#ffffff;dashed=0;verticalLabelPosition=bottom;verticalAlign=top;align=center;html=1;fontSize=12;fontStyle=0;aspect=fixed;shape=mxgraph.aws4.resourceIcon;resIcon=mxgraph.aws4.cloudformation;" vertex="1" parent="cloud-border">
          <mxGeometry x="800" y="550" width="78" height="78" as="geometry" />
        </mxCell>
        
        <!-- Connections -->
        <!-- Frontend to Authentication -->
        <mxCell id="react-to-cognito" value="Authentication" style="endArrow=classic;html=1;rounded=0;" edge="1" parent="cloud-border" source="react-frontend" target="cognito">
          <mxGeometry width="50" height="50" relative="1" as="geometry">
            <mxPoint x="200" y="230" as="sourcePoint"/>
            <mxPoint x="300" y="139" as="targetPoint"/>
            <Array as="points">
              <mxPoint x="240" y="230"/>
              <mxPoint x="240" y="139"/>
            </Array>
          </mxGeometry>
        </mxCell>
        
        <!-- Authentication to Communication -->
        <mxCell id="cognito-to-appsync" value="Auth" style="endArrow=classic;html=1;rounded=0;" edge="1" parent="cloud-border" source="cognito" target="appsync">
          <mxGeometry width="50" height="50" relative="1" as="geometry">
            <mxPoint x="339" y="178" as="sourcePoint"/>
            <mxPoint x="339" y="250" as="targetPoint"/>
          </mxGeometry>
        </mxCell>
        
        <!-- Frontend to Communication -->
        <mxCell id="react-to-appsync" value="GraphQL/WebSocket" style="endArrow=classic;startArrow=classic;html=1;rounded=0;" edge="1" parent="cloud-border">
          <mxGeometry width="50" height="50" relative="1" as="geometry">
            <mxPoint x="199" y="245" as="sourcePoint"/>
            <mxPoint x="300" y="289" as="targetPoint"/>
            <Array as="points">
              <mxPoint x="240" y="245"/>
              <mxPoint x="240" y="289"/>
            </Array>
          </mxGeometry>
        </mxCell>
        
        <!-- Communication to Agents -->
        <mxCell id="appsync-to-agents" value="Resolvers" style="endArrow=classic;startArrow=classic;html=1;rounded=0;" edge="1" parent="cloud-border" source="appsync">
          <mxGeometry width="50" height="50" relative="1" as="geometry">
            <mxPoint x="339" y="328" as="sourcePoint"/>
            <mxPoint x="339" y="360" as="targetPoint"/>
          </mxGeometry>
        </mxCell>
        
        <mxCell id="agents-distribution" value="" style="endArrow=none;html=1;rounded=0;" edge="1" parent="cloud-border">
          <mxGeometry width="50" height="50" relative="1" as="geometry">
            <mxPoint x="239" y="360" as="sourcePoint"/>
            <mxPoint x="639" y="360" as="targetPoint"/>
          </mxGeometry>
        </mxCell>
        
        <mxCell id="to-supervisor" value="" style="endArrow=classic;html=1;rounded=0;" edge="1" parent="cloud-border">
          <mxGeometry width="50" height="50" relative="1" as="geometry">
            <mxPoint x="239" y="360" as="sourcePoint"/>
            <mxPoint x="239" y="400" as="targetPoint"/>
          </mxGeometry>
        </mxCell>
        
        <mxCell id="to-cost-analysis" value="" style="endArrow=classic;html=1;rounded=0;" edge="1" parent="cloud-border">
          <mxGeometry width="50" height="50" relative="1" as="geometry">
            <mxPoint x="439" y="360" as="sourcePoint"/>
            <mxPoint x="439" y="400" as="targetPoint"/>
          </mxGeometry>
        </mxCell>
        
        <mxCell id="to-optimization" value="" style="endArrow=classic;html=1;rounded=0;" edge="1" parent="cloud-border">
          <mxGeometry width="50" height="50" relative="1" as="geometry">
            <mxPoint x="639" y="360" as="sourcePoint"/>
            <mxPoint x="639" y="400" as="targetPoint"/>
          </mxGeometry>
        </mxCell>
        
        <!-- Agent Interconnections -->
        <mxCell id="supervisor-to-cost-analysis" value="" style="endArrow=classic;startArrow=classic;html=1;rounded=0;" edge="1" parent="cloud-border" source="supervisor-lambda" target="cost-analysis-lambda">
          <mxGeometry width="50" height="50" relative="1" as="geometry"/>
        </mxCell>
        
        <mxCell id="cost-analysis-to-optimization" value="" style="endArrow=classic;startArrow=classic;html=1;rounded=0;" edge="1" parent="cloud-border" source="cost-analysis-lambda" target="optimization-lambda">
          <mxGeometry width="50" height="50" relative="1" as="geometry"/>
        </mxCell>
        
        <!-- Agents to MCP Servers -->
        <mxCell id="supervisor-to-mcp" value="" style="endArrow=classic;startArrow=classic;html=1;rounded=0;" edge="1" parent="cloud-border" source="supervisor-lambda" target="supervisor-mcp">
          <mxGeometry width="50" height="50" relative="1" as="geometry"/>
        </mxCell>
        
        <mxCell id="cost-analysis-to-mcp" value="" style="endArrow=classic;startArrow=classic;html=1;rounded=0;" edge="1" parent="cloud-border" source="cost-analysis-lambda" target="cost-analysis-mcp">
          <mxGeometry width="50" height="50" relative="1" as="geometry"/>
        </mxCell>
        
        <mxCell id="optimization-to-mcp" value="" style="endArrow=classic;startArrow=classic;html=1;rounded=0;" edge="1" parent="cloud-border" source="optimization-lambda" target="optimization-mcp">
          <mxGeometry width="50" height="50" relative="1" as="geometry"/>
        </mxCell>
        
        <!-- MCP Servers to AWS Services -->
        <mxCell id="mcp-to-services" value="" style="endArrow=none;html=1;rounded=0;" edge="1" parent="cloud-border">
          <mxGeometry width="50" height="50" relative="1" as="geometry">
            <mxPoint x="239" y="660" as="sourcePoint"/>
            <mxPoint x="739" y="660" as="targetPoint"/>
          </mxGeometry>
        </mxCell>
        
        <mxCell id="mcp-supervisor-down" value="" style="endArrow=none;html=1;rounded=0;" edge="1" parent="cloud-border">
          <mxGeometry width="50" height="50" relative="1" as="geometry">
            <mxPoint x="239" y="628" as="sourcePoint"/>
            <mxPoint x="239" y="660" as="targetPoint"/>
          </mxGeometry>
        </mxCell>
        
        <mxCell id="mcp-cost-analysis-down" value="" style="endArrow=none;html=1;rounded=0;" edge="1" parent="cloud-border">
          <mxGeometry width="50" height="50" relative="1" as="geometry">
            <mxPoint x="439" y="628" as="sourcePoint"/>
            <mxPoint x="439" y="660" as="targetPoint"/>
          </mxGeometry>
        </mxCell>
        
        <mxCell id="mcp-optimization-down" value="" style="endArrow=none;html=1;rounded=0;" edge="1" parent="cloud-border">
          <mxGeometry width="50" height="50" relative="1" as="geometry">
            <mxPoint x="639" y="628" as="sourcePoint"/>
            <mxPoint x="639" y="660" as="targetPoint"/>
          </mxGeometry>
        </mxCell>
        
        <mxCell id="to-cost-explorer" value="" style="endArrow=classic;html=1;rounded=0;" edge="1" parent="cloud-border">
          <mxGeometry width="50" height="50" relative="1" as="geometry">
            <mxPoint x="339" y="660" as="sourcePoint"/>
            <mxPoint x="339" y="700" as="targetPoint"/>
          </mxGeometry>
        </mxCell>
        
        <mxCell id="to-trusted-advisor" value="" style="endArrow=classic;html=1;rounded=0;" edge="1" parent="cloud-border">
          <mxGeometry width="50" height="50" relative="1" as="geometry">
            <mxPoint x="539" y="660" as="sourcePoint"/>
            <mxPoint x="539" y="700" as="targetPoint"/>
          </mxGeometry>
        </mxCell>
        
        <mxCell id="to-ec2" value="" style="endArrow=classic;html=1;rounded=0;" edge="1" parent="cloud-border">
          <mxGeometry width="50" height="50" relative="1" as="geometry">
            <mxPoint x="739" y="660" as="sourcePoint"/>
            <mxPoint x="739" y="700" as="targetPoint"/>
          </mxGeometry>
        </mxCell>
        
        <!-- Storage Connections -->
        <mxCell id="agents-to-dynamodb" value="State Storage" style="endArrow=classic;startArrow=classic;html=1;rounded=0;" edge="1" parent="cloud-border">
          <mxGeometry width="50" height="50" relative="1" as="geometry">
            <mxPoint x="678" y="420" as="sourcePoint"/>
            <mxPoint x="800" y="289" as="targetPoint"/>
            <Array as="points">
              <mxPoint x="720" y="420"/>
              <mxPoint x="720" y="289"/>
            </Array>
          </mxGeometry>
        </mxCell>
        
        <mxCell id="agents-to-cloudwatch" value="Logs" style="endArrow=classic;html=1;rounded=0;" edge="1" parent="cloud-border">
          <mxGeometry width="50" height="50" relative="1" as="geometry">
            <mxPoint x="678" y="459" as="sourcePoint"/>
            <mxPoint x="800" y="489" as="targetPoint"/>
            <Array as="points">
              <mxPoint x="720" y="459"/>
              <mxPoint x="720" y="489"/>
            </Array>
          </mxGeometry>
        </mxCell>
        
        <mxCell id="amplify-to-s3" value="Static Assets" style="endArrow=classic;html=1;rounded=0;" edge="1" parent="cloud-border">
          <mxGeometry width="50" height="50" relative="1" as="geometry">
            <mxPoint x="178" y="139" as="sourcePoint"/>
            <mxPoint x="800" y="370" as="targetPoint"/>
            <Array as="points">
              <mxPoint x="720" y="139"/>
              <mxPoint x="720" y="370"/>
            </Array>
          </mxGeometry>
        </mxCell>
        
        <mxCell id="cognito-to-iam" value="" style="endArrow=classic;startArrow=classic;html=1;rounded=0;" edge="1" parent="cloud-border" source="cognito" target="iam">
          <mxGeometry width="50" height="50" relative="1" as="geometry"/>
        </mxCell>
        
      </root>
    </mxGraphModel>
  </diagram>
</mxfile>
